PathFileType	4	(X/Y/Z)	Patient5_TMGait_0pt45_1_left_14.trc.trc
DataRate	CameraRate	NumFrames	NumMarkers	Units	OrigDataRate	OrigDataStartFrame	OrigNumFrames
62.500000000000	62.500000000000	5	32	mm	62.500000000000	89	       141
Frame#	Time	R.ASIS			L.ASIS			Chest			R.Shoulder			Neck			L.Shoulder			L.Elbow			L.Wrist			R.Elbow			R.Wrist			L.Thigh.Superior			L.Thigh.Lateral			L.Thigh.Inferior			L.Patella			L.Shank.Superior			L.Shank.Lateral			L.Shank.Inferior			L.Heel			L.Midfoot.Lateral			L.Midfoot.Superior			L.Toe			R.Thigh.Superior			R.Thigh.Lateral			R.Thigh.Inferior			R.Patella			R.Shank.Superior			R.Shank.Lateral			R.Shank.Inferior			R.Heel			R.Midfoot.Lateral			R.Midfoot.Superior			R.Toe			
		X1	Y1	Z1	X2	Y2	Z2	X3	Y3	Z3	X4	Y4	Z4	X5	Y5	Z5	X6	Y6	Z6	X7	Y7	Z7	X8	Y8	Z8	X9	Y9	Z9	X10	Y10	Z10	X11	Y11	Z11	X12	Y12	Z12	X13	Y13	Z13	X14	Y14	Z14	X15	Y15	Z15	X16	Y16	Z16	X17	Y17	Z17	X18	Y18	Z18	X19	Y19	Z19	X20	Y20	Z20	X21	Y21	Z21	X22	Y22	Z22	X23	Y23	Z23	X24	Y24	Z24	X25	Y25	Z25	X26	Y26	Z26	X27	Y27	Z27	X28	Y28	Z28	X29	Y29	Z29	X30	Y30	Z30	X31	Y31	Z31	X32	Y32	Z32	

89	23.368000000000	1057.006442457659	973.300823436755	566.357945414619	1047.048550964260	952.246227399306	323.212360610990	1098.620222162474	1431.999062825018	474.330394945884	989.962556822387	1485.583788165731	639.644152808465	970.603261219982	1551.414162384875	456.851416590784	1044.141060424865	1504.133799309478	276.934980558743	1006.486100195413	1189.015198642263	126.749330609811	1129.446362682303	927.231028401847	156.644586309326	904.769524440135	1165.431138379658	776.464937081354	1116.865942554759	981.173638107619	701.277086469330	1020.947845531390	722.295545496868	325.966933642538	929.316134774149	667.333504876587	285.867689972765	984.452856718474	595.682219039115	348.367796944300	947.448100075141	476.351084486380	353.537986581053	874.549593275931	390.449220417552	375.022510363159	792.090583493374	342.307570038260	296.075626964288	808.428985341385	280.423711220425	381.682244178679	619.232199004210	77.076252720350	377.887932000076	707.419987203979	42.867557783710	322.690409670661	806.850638385009	91.062098528527	368.650773848332	905.747280825520	43.726690006222	378.935774521180	1095.557689646572	747.112038664953	588.218988617699	1023.259101921470	660.745274302171	644.006927992430	1108.191545553311	618.891562343534	567.651520992758	1125.011264719753	522.792801842176	599.662957073805	1094.495535648333	420.868340770759	563.228181013595	1028.463672756147	346.008964549549	643.310340811684	1092.230537419563	280.871006004874	563.288600220018	992.556924329961	52.396144679290	531.619216421218	1070.561117437924	23.978606487613	605.609126369618	1175.358092369988	89.857425595660	585.642562024525	1279.618329599859	47.508452397009	586.583019574687	
90	23.384000000000	1057.815259504737	972.488088866567	569.532900745474	1048.953548782889	952.478695401678	326.454835267987	1100.114542377351	1431.944801434019	478.016007402652	992.104693510054	1485.261419930486	643.820675301500	971.789253558045	1551.268201883701	460.958567783913	1044.200252959122	1503.920770827728	280.575789393058	1001.751855909180	1189.605234001372	130.038295815043	1122.304090161211	926.295226011202	156.275398574017	910.074883082647	1163.936144216649	780.167989867023	1122.431127913260	980.578673496041	703.583393159399	1022.587920065218	722.430010728192	328.601285022685	931.353113975010	667.279790395386	287.984497005759	986.870958596494	595.618199183514	350.240486506132	949.293367207203	474.524089491417	354.231722547812	874.777815135301	389.751283592050	375.376953974972	790.971232556619	343.733857787218	296.300897085778	806.335831179197	281.126394310609	381.861256628188	613.316208186281	81.057962710155	377.369371922323	700.952573850597	44.831527249419	322.449702867318	801.318091530433	91.460940717964	368.045776595001	898.583989315920	43.715017758012	378.905284753727	1095.676158512778	746.760690092510	591.140887881970	1022.763808768091	660.296454472380	645.903556083154	1107.893895551321	618.606176319289	569.774817297996	1123.697018013318	521.977579516869	600.855386828979	1092.157720974668	420.028369426891	563.773847622435	1025.824439893707	345.502226311516	643.990433493882	1088.161175147814	280.033361870710	563.091806733079	985.595083008169	52.153772803773	530.789998745781	1063.321826079321	24.325933529646	605.273206031265	1168.685374202198	89.021305053046	583.917655735123	1272.681581539844	45.796561629840	585.529366682940	
91	23.400000000000	1058.542868028048	972.423413013740	572.963024423663	1050.448023388560	953.193717635665	329.869669401086	1101.841292742853	1432.299912717465	481.788489341780	994.440337401595	1485.530374961475	647.982638511610	973.423459101588	1551.698773509155	465.029893218617	1044.957394696699	1504.254925037728	284.315071385018	997.332831351710	1190.823617639141	133.622520932692	1115.041346775408	925.858242910913	156.344069451022	915.375863734774	1163.093519037632	783.709346715606	1128.164430940992	980.730524895534	706.030225393044	1024.630280579623	723.138820580998	331.157745133919	934.081888891983	667.544760460891	289.921408952817	990.173523445373	596.010500313738	351.883977422877	952.461273271901	472.881509702966	354.458366111104	876.184815619501	389.236823756417	375.311585561183	790.891659710053	345.525179652068	296.276815654622	805.260777452999	282.264890487750	381.899988916193	607.980008423836	86.165324615682	376.824588853402	694.792918862544	47.360311532361	322.222214373107	796.363118189140	91.905424581044	367.351453022169	891.530523117631	43.696999347455	378.913110711576	1096.060045953124	747.085438768255	594.606413861768	1022.621595079224	660.450562471377	648.231931453825	1108.287260237526	619.026007330918	572.664408937534	1122.964454564547	521.832524794783	602.918820262674	1090.346291325060	419.713698255007	565.138087852575	1023.397242985790	345.638667059980	645.403975838182	1084.308384005479	279.724918641099	563.725387623947	978.520192506852	52.383785020023	530.597377505886	1056.094790736995	24.769693004305	605.321283920535	1161.857559239691	88.673729269040	583.120396134795	1265.650685876749	44.847708729275	585.024176911890	
92	23.416000000000	1059.260795746946	972.919913466450	576.536856813798	1051.459915698568	954.325870354072	333.408334043450	1103.746458993093	1433.018168091822	485.595782388342	996.966714620663	1486.341209303035	652.119732748683	975.415460731300	1552.634929913945	469.089777668296	1046.302380229251	1505.107499659034	288.141675839861	993.321581006314	1192.676282959548	137.399974855525	1107.727656693107	925.936422742632	156.965728013535	920.532806064425	1162.939268884260	787.169574139384	1133.977603325902	981.766806954094	708.599315792124	1027.124624294789	724.365254291840	333.427136253321	937.520427669614	668.076416486295	291.528197794082	994.469019395957	596.790045382912	353.038034184078	957.163439822902	471.393789425847	353.973597591592	878.955571301677	388.869949937531	374.673534975377	792.031574367556	347.659705392333	295.898540185975	805.392751014038	283.815532079302	381.628981300222	603.397758409349	92.557744894854	376.225842278088	689.023394467504	50.562599346429	321.988547911034	792.051326181544	92.389710015791	366.562438524031	884.607481365298	43.650626525995	378.963490912873	1096.545292270977	747.711967963798	598.619793698307	1022.392320592233	660.920086809609	650.866066178480	1108.953389261862	619.741885391482	576.246689545971	1122.304582236175	521.992830399894	605.753296221848	1088.683935284982	419.693390636072	567.130451330885	1020.764833215368	346.122300952644	647.249439408367	1080.467657914176	279.720281604516	564.995344444020	971.394089329416	52.858857338201	530.820678463468	1048.902131482269	25.161553432886	605.599448709986	1154.909251727909	88.624600561091	583.044886964696	1258.562635849276	44.456255204463	584.951412012572	
93	23.432000000000	1060.020459433954	973.726710283397	580.109985490834	1051.944428081793	955.727020582396	337.023877970643	1105.775254397580	1433.993227362997	489.387909590304	999.682033447846	1487.560124710770	656.236388751413	977.651182250345	1553.930573735177	473.178757229327	1048.051356643489	1506.363653485588	292.043875902770	989.798233942962	1195.067943751963	141.245375850416	1100.461942988378	926.465480792001	158.234842232390	925.425057553890	1163.407059538344	790.656151776933	1139.787201102678	983.722124344589	711.280577200106	1030.127455368275	725.970054941517	335.204622872172	941.687095843600	668.753813919325	292.672619998706	999.876123182648	597.828731567622	353.458482536290	963.592900213084	469.991482153142	352.591018116934	883.256966186853	388.582223149899	373.368883874658	794.585425574607	350.078915361572	295.084706615171	806.908062843942	285.722192807238	380.909939150241	599.763935496146	100.380443790689	375.535927527670	683.737130681643	54.576993202474	321.718324157412	788.421213415939	92.944832883979	365.681719652926	877.832940344449	43.541252399083	379.052793908482	1096.894875772650	748.292628973893	603.021813353633	1021.660239726912	661.453561992784	653.631042317680	1109.347215901293	620.380171922643	580.248822242558	1121.163862439839	522.148003189488	609.047108485320	1086.709163518059	419.774315082644	569.440426849254	1017.561883679412	346.695744787227	649.195252685745	1076.390514232291	279.833029985958	566.608915427490	964.254616565954	53.387833322894	531.241963360370	1041.740980903304	25.430642705591	605.969599099091	1147.872384599794	88.710586531271	583.410381600488	1251.442085314750	44.405780781698	585.156992141422	
